Coordinates
version=1
nRows=13
nColumns=36
inDegrees=yes

Units are S.I. units (second, meters, Newtons, ...)
If the header above contains a line with 'inDegrees', this indicates whether rotational values are in degrees (yes) or radians (no).

endheader
time	pelvis_tilt	pelvis_list	pelvis_rotation	pelvis_tx	pelvis_ty	pelvis_tz	hip_flexion_r	hip_adduction_r	hip_rotation_r	knee_angle_r	knee_angle_r_beta	ankle_angle_r	subtalar_angle_r	mtp_angle_r	hip_flexion_l	hip_adduction_l	hip_rotation_l	knee_angle_l	knee_angle_l_beta	ankle_angle_l	subtalar_angle_l	mtp_angle_l	lumbar_extension	lumbar_bending	lumbar_rotation	arm_flex_r	arm_add_r	arm_rot_r	elbow_flex_r	pro_sup_r	arm_flex_l	arm_add_l	arm_rot_l	elbow_flex_l	pro_sup_l
      2.82916670	    -15.11404028	      0.20392933	      1.44145720	      0.37239061	      1.07689394	     -0.04956401	     12.40455329	     -4.97662674	    -11.02531195	      1.16096417	      0.02026265	    -29.90838717	      1.47055599	     -7.49999987	     20.62613903	     -5.45495540	     -5.27667199	     10.15823753	      0.17729469	    -37.20040330	     -5.74377379	     -7.49999987	      2.26221192	     -0.71327975	      3.43993309	     53.46767886	    -39.13073361	     13.44384527	     97.38320197	     91.64481764	     73.95414514	    -38.36060648	     29.48926388	    123.02249638	     86.04540743
      2.83333330	    -15.19854275	      0.06087391	      1.22369554	      0.37319231	      1.08953648	     -0.04930927	     12.30760456	     -4.66283066	    -11.08074462	      0.71018919	      0.01239514	    -30.98080445	      1.38894690	     -7.49999987	     20.44829431	     -5.54323811	     -5.24747180	      9.25427345	      0.16151754	    -38.00163213	     -5.12651654	     -7.49999987	      2.28996908	     -0.72375312	      3.69366539	     50.89042460	    -38.82537065	     12.85788856	     96.01278511	     87.84901288	     71.80792345	    -37.99999076	     29.25132029	    123.05802583	     82.60809047
      2.83750000	    -15.31344925	     -0.09558414	      1.01088085	      0.37562334	      1.09516991	     -0.04866383	     12.23856604	     -4.30604486	    -11.37032991	      0.59990583	      0.01047033	    -31.54711704	      1.35002690	     -7.49999987	     20.39636226	     -5.66302641	     -5.07080423	      8.84435110	      0.15436305	    -37.87824017	     -4.73266576	     -7.49999987	      2.53286009	     -0.65649785	      4.14882286	     48.64803967	    -38.69389795	     11.28663444	     94.08688814	     88.23819533	     69.70592256	    -37.39315649	     28.15975189	    122.51526840	     83.03781233
      2.84166670	    -15.22378396	     -0.27758302	      0.69804264	      0.37757866	      1.10314251	     -0.04825949	     11.90404748	     -3.84303054	    -11.75706931	      0.62245289	      0.01086385	    -32.05913871	      1.19212473	     -7.49999987	     20.12553950	     -5.84389768	     -4.75894527	      8.62245832	      0.15049029	    -37.42283624	     -4.30041872	     -7.49999987	      2.57703322	     -0.55908872	      4.61141505	     46.87165626	    -38.58237861	     10.40830908	     92.13964465	     88.35875227	     68.26090111	    -36.76312263	     27.56928894	    121.90126597	     83.18296771
      2.84583330	    -14.92648834	     -0.38643512	      0.48007213	      0.37862968	      1.11552949	     -0.04893296	     11.39124509	     -3.54975533	    -11.80185587	      0.70206060	      0.01225327	    -33.07084378	      0.82019488	     -7.49999987	     19.74162772	     -5.90113665	     -4.47208870	      8.67303499	      0.15137302	    -37.30346841	     -4.46562961	     -7.49999987	      2.51411060	     -0.54719175	      4.76880860	     44.92479190	    -38.13571296	      9.97828214	     90.05919729	     84.64016080	     66.98981946	    -35.82480456	     27.74605865	    120.79631809	     79.96616991
      2.85000000	    -14.64828029	     -0.52174367	      0.24735528	      0.37877991	      1.12613314	     -0.04896380	     11.02889904	     -3.30536321	    -11.79775170	      0.83427941	      0.01456092	    -34.51897109	      0.50105720	     -7.49999987	     19.40759988	     -5.99433120	     -4.20570498	      8.76410358	      0.15296246	    -37.35371856	     -4.67317552	     -7.49999987	      2.38845780	     -0.42164469	      4.91396334	     42.83292125	    -37.39080534	      8.92418334	     87.90977654	     83.62916780	     65.21845017	    -34.72082204	     27.20908901	    119.38994662	     79.22499692
      2.85416670	    -14.39545400	     -0.57927809	     -0.00958675	      0.37891728	      1.14257063	     -0.04491648	     10.63459478	     -3.00688430	    -12.11154899	      1.12623223	      0.01965646	    -35.77379111	      0.48785477	     -7.49999987	     19.12561424	     -6.17136917	     -4.14954462	      8.70978848	      0.15201449	    -37.55915008	     -4.54687840	     -7.49999987	      2.23568991	     -0.23229859	      4.93585726	     41.72283034	    -35.88077588	      8.54657498	     84.60913236	     88.03794621	     62.95063906	    -33.72740547	     26.38858696	    117.66772410	     82.58249812
      2.85833330	    -13.95237818	     -0.57031585	     -0.01828432	      0.37962760	      1.15462687	     -0.04395971	     10.10933253	     -2.81143949	    -12.04906320	      1.40099215	      0.02445193	    -37.14743076	     -0.02018218	     -7.49999987	     18.71819787	     -6.26233835	     -4.35163250	      8.54161981	      0.14907939	    -37.43886994	     -4.97390609	     -7.49999987	      1.60843738	     -0.11725240	      5.06106911	     40.31969927	    -34.84274639	      8.37628990	     82.37802953	     85.01165352	     60.79135681	    -32.87826967	     25.68759451	    116.33669550	     79.93895111
      2.86250000	    -13.46780150	     -0.47574204	      0.25928332	      0.38211730	      1.16653379	     -0.04423571	      9.40923577	     -2.75919896	    -12.40934249	      1.75737054	      0.03067190	    -38.02837462	     -0.75516773	     -7.49999987	     18.22102614	     -6.14261854	     -4.40809965	      8.32611888	      0.14531819	    -37.28921526	     -5.10771514	     -7.49999987	      1.16112636	      0.09632302	      4.56218236	     39.69576765	    -33.40885917	      9.17880004	     79.06406093	     86.22936863	     57.94231590	    -32.51879387	     24.20718047	    114.93246269	     80.50727702
      2.86666670	    -12.96600421	     -0.31977655	      0.35561568	      0.38317485	      1.17757176	     -0.04454509	      8.76247877	     -2.77048428	    -12.80444536	      2.10942620	      0.03681643	    -39.03440620	     -1.51848250	     -7.49999987	     17.62164323	     -5.94440132	     -4.79850515	      8.07865378	      0.14099911	    -36.95825655	     -5.25019416	     -7.49999987	      0.44297076	      0.02586149	      4.48283272	     38.32854578	    -32.37973990	      9.07642828	     76.75462662	     85.15312974	     55.90720286	    -31.67549411	     23.78045832	    113.31733248	     79.24086726
      2.87083330	    -12.45427113	     -0.16954564	      0.49163164	      0.38473555	      1.18320711	     -0.04261954	      8.12777341	     -2.77892701	    -13.17025641	      2.47578688	      0.04321063	    -39.55008169	     -2.57694299	     -7.49999987	     16.89562116	     -5.64964672	     -5.04966374	      7.78178121	      0.13581770	    -36.82852287	     -4.79932062	     -7.49999987	     -0.22329804	     -0.17188334	      4.27786001	     36.97116489	    -31.43193146	      8.65994571	     74.53780933	     85.04105402	     54.21561569	    -30.76577923	     23.32515023	    111.53615989	     79.02964124
      2.87500000	    -12.08575074	     -0.10496296	      0.55964133	      0.38724281	      1.19651620	     -0.04515454	      7.72961023	     -2.87169368	    -13.35899402	      3.01458183	      0.05261438	    -40.16352687	     -3.23431043	     -7.49999987	     16.32879053	     -5.47640742	     -5.46529492	      7.76120282	      0.13545854	    -36.94251955	     -4.58557456	     -7.49999987	     -0.65298601	     -0.17110207	      3.74294541	     36.10644432	    -30.20268440	      9.42692854	     71.57489732	     83.11188488	     51.86011575	    -29.93661437	     22.54156841	    109.79892187	     76.36983368
      2.87916670	    -11.54543961	     -0.16829501	      0.57015691	      0.38827167	      1.20630582	     -0.04484082	      7.15678374	     -2.77975878	    -13.06098017	      3.26991330	      0.05707075	    -41.01161891	     -4.51065987	     -7.49999987	     15.56933404	     -5.50496767	     -5.59930877	      7.61826616	      0.13296383	    -37.07069333	     -4.70669796	     -7.49999987	     -1.46846457	     -0.18492364	      3.54125006	     34.81084593	    -29.15526954	      9.24200950	     69.30155896	     83.15764460	     50.04560241	    -28.59031181	     21.70013419	    107.86186325	     76.12857136
